<svg width="342" height="314" viewBox="0 0 342 314" fill="none" xmlns="http://www.w3.org/2000/svg">
<path d="M314.737 35.7888H288.481V259.635C288.481 263.147 287.79 266.625 286.446 269.87C285.102 273.114 283.132 276.063 280.648 278.546C278.165 281.03 275.216 282.999 271.972 284.344C268.727 285.688 265.249 286.379 261.737 286.379H61V286.635C61 290.147 61.6918 293.625 63.0358 296.87C64.3798 300.114 66.3497 303.063 68.8332 305.546C71.3166 308.03 74.2648 309.999 77.5096 311.344C80.7543 312.688 84.232 313.379 87.7441 313.379H314.737C318.249 313.379 321.727 312.688 324.972 311.344C328.216 309.999 331.165 308.03 333.648 305.546C336.131 303.063 338.101 300.114 339.445 296.87C340.789 293.625 341.481 290.147 341.481 286.635V62.5329C341.481 55.4399 338.664 48.6375 333.648 43.622C328.633 38.6065 321.83 35.7888 314.737 35.7888V35.7888Z" fill="#F2F2F2"/>
<path d="M253.737 0.788818H26.7441C11.9737 0.788818 0 12.7626 0 27.5329V251.635C0 266.406 11.9737 278.379 26.7441 278.379H253.737C268.508 278.379 280.481 266.406 280.481 251.635V27.5329C280.481 12.7626 268.508 0.788818 253.737 0.788818Z" fill="#F2F2F2"/>
<path d="M26.7443 6.28857C23.9544 6.28857 21.1919 6.83805 18.6145 7.90567C16.037 8.97329 13.6951 10.5381 11.7224 12.5108C9.74968 14.4835 8.18484 16.8255 7.11722 19.4029C6.0496 21.9804 5.50012 24.7429 5.50012 27.5327V251.635C5.50012 257.27 7.73833 262.673 11.7224 266.657C15.7064 270.641 21.11 272.879 26.7443 272.879H171.617C185.191 272.879 198.632 270.206 211.173 265.011C223.713 259.817 235.108 252.203 244.706 242.605C254.305 233.006 261.918 221.612 267.113 209.071C272.307 196.53 274.981 183.089 274.981 169.515V27.5327C274.981 24.7429 274.432 21.9804 273.364 19.4029C272.296 16.8255 270.732 14.4835 268.759 12.5108C266.786 10.5381 264.444 8.97329 261.867 7.90567C259.289 6.83805 256.527 6.28857 253.737 6.28857H26.7443Z" fill="white"/>
<path d="M203.696 74.2999H76.2892C75.1202 74.2999 73.999 73.8355 73.1723 73.0089C72.3456 72.1822 71.8812 71.061 71.8812 69.8919C71.8812 68.7228 72.3456 67.6016 73.1723 66.775C73.999 65.9483 75.1202 65.4839 76.2892 65.4839H203.696C204.865 65.4839 205.986 65.9483 206.813 66.775C207.639 67.6016 208.104 68.7228 208.104 69.8919C208.104 71.061 207.639 72.1822 206.813 73.0089C205.986 73.8355 204.865 74.2999 203.696 74.2999Z" fill="#F2F2F2"/>
<path d="M203.696 168.3H76.2892C75.1202 168.3 73.999 167.836 73.1723 167.009C72.3456 166.182 71.8812 165.061 71.8812 163.892C71.8812 162.723 72.3456 161.602 73.1723 160.775C73.999 159.948 75.1202 159.484 76.2892 159.484H203.696C204.865 159.484 205.986 159.948 206.813 160.775C207.639 161.602 208.104 162.723 208.104 163.892C208.104 165.061 207.639 166.182 206.813 167.009C205.986 167.836 204.865 168.3 203.696 168.3Z" fill="#F2F2F2"/>
<path d="M255.433 121.331H24.5522C23.3831 121.331 22.2619 120.866 21.4353 120.04C20.6086 119.213 20.1442 118.092 20.1442 116.923C20.1442 115.754 20.6086 114.632 21.4353 113.806C22.2619 112.979 23.3831 112.515 24.5522 112.515H255.433C256.602 112.515 257.723 112.979 258.55 113.806C259.376 114.632 259.841 115.754 259.841 116.923C259.841 118.092 259.376 119.213 258.55 120.04C257.723 120.866 256.602 121.331 255.433 121.331V121.331Z" fill="#F2F2F2"/>
<path d="M285.646 213.877H96.6456C92.5347 213.877 88.5922 215.51 85.6854 218.417C82.7786 221.324 81.1456 225.267 81.1456 229.377C81.1456 233.488 82.7786 237.431 85.6854 240.338C88.5922 243.244 92.5347 244.877 96.6456 244.877H285.646C289.756 244.877 293.699 243.244 296.606 240.338C299.513 237.431 301.146 233.488 301.146 229.377C301.146 225.267 299.513 221.324 296.606 218.417C293.699 215.51 289.756 213.877 285.646 213.877V213.877Z" fill="white"/>
<path d="M285.646 245.877H96.6456C92.2695 245.877 88.0727 244.139 84.9783 241.045C81.884 237.95 80.1456 233.754 80.1456 229.377C80.1456 225.001 81.884 220.805 84.9783 217.71C88.0727 214.616 92.2695 212.877 96.6456 212.877H285.646C290.022 212.877 294.218 214.616 297.313 217.71C300.407 220.805 302.146 225.001 302.146 229.377C302.146 233.754 300.407 237.95 297.313 241.045C294.218 244.139 290.022 245.877 285.646 245.877V245.877ZM96.6456 214.877C92.7999 214.877 89.1118 216.405 86.3925 219.124C83.6732 221.844 82.1456 225.532 82.1456 229.377C82.1456 233.223 83.6732 236.911 86.3925 239.63C89.1118 242.35 92.7999 243.877 96.6456 243.877H285.646C289.491 243.877 293.179 242.35 295.899 239.63C298.618 236.911 300.146 233.223 300.146 229.377C300.146 225.532 298.618 221.844 295.899 219.124C293.179 216.405 289.491 214.877 285.646 214.877H96.6456Z" fill="#6C63FF"/>
<path d="M296.79 281.52H213.384C212.215 281.52 211.093 281.056 210.267 280.229C209.44 279.403 208.976 278.281 208.976 277.112C208.976 275.943 209.44 274.822 210.267 273.995C211.093 273.169 212.215 272.704 213.384 272.704H296.79C297.959 272.704 299.08 273.169 299.907 273.995C300.734 274.822 301.198 275.943 301.198 277.112C301.198 278.281 300.734 279.403 299.907 280.229C299.08 281.056 297.959 281.52 296.79 281.52V281.52Z" fill="#6C63FF"/>
</svg>
