<svg width="159" height="32" viewBox="0 0 159 32" fill="none" xmlns="http://www.w3.org/2000/svg">
<path d="M38.64 23.14C38.3333 23.14 38.0933 23.0533 37.92 22.88C37.76 22.7067 37.68 22.4667 37.68 22.16V9.74C37.68 9.42 37.7667 9.18 37.94 9.02C38.1133 8.84667 38.3467 8.76 38.64 8.76C38.92 8.76 39.1333 8.81333 39.28 8.92C39.44 9.01333 39.5867 9.18667 39.72 9.44L44.96 19.22H44.34L49.56 9.44C49.6933 9.18667 49.8333 9.01333 49.98 8.92C50.1267 8.81333 50.34 8.76 50.62 8.76C50.9133 8.76 51.14 8.84667 51.3 9.02C51.46 9.18 51.54 9.42 51.54 9.74V22.16C51.54 22.4667 51.46 22.7067 51.3 22.88C51.1533 23.0533 50.9267 23.14 50.62 23.14C50.3133 23.14 50.08 23.0533 49.92 22.88C49.76 22.7067 49.68 22.4667 49.68 22.16V11.84H50.12L45.48 20.42C45.3733 20.62 45.26 20.7667 45.14 20.86C45.02 20.9533 44.8533 21 44.64 21C44.4267 21 44.2533 20.9533 44.12 20.86C43.9867 20.7533 43.8667 20.6067 43.76 20.42L39.08 11.82H39.56V22.16C39.56 22.4667 39.48 22.7067 39.32 22.88C39.1733 23.0533 38.9467 23.14 38.64 23.14ZM56.9466 26.74C56.7066 26.74 56.5066 26.6733 56.3466 26.54C56.1999 26.42 56.1132 26.2533 56.0866 26.04C56.0732 25.84 56.1132 25.62 56.2066 25.38L57.5666 22.32V23.18L53.8266 14.48C53.7332 14.24 53.6999 14.0133 53.7266 13.8C53.7532 13.5867 53.8532 13.42 54.0266 13.3C54.1999 13.1667 54.4332 13.1 54.7266 13.1C54.9799 13.1 55.1799 13.16 55.3266 13.28C55.4732 13.4 55.6066 13.6067 55.7266 13.9L58.7466 21.36H58.1866L61.2466 13.9C61.3666 13.5933 61.5066 13.3867 61.6666 13.28C61.8266 13.16 62.0466 13.1 62.3266 13.1C62.5666 13.1 62.7532 13.1667 62.8866 13.3C63.0332 13.42 63.1199 13.5867 63.1466 13.8C63.1866 14 63.1532 14.22 63.0466 14.46L58.0466 25.96C57.9132 26.2667 57.7599 26.4733 57.5866 26.58C57.4266 26.6867 57.2132 26.74 56.9466 26.74ZM66.2572 23.14C65.9505 23.14 65.7105 23.0533 65.5372 22.88C65.3772 22.7067 65.2972 22.4667 65.2972 22.16V9.74C65.2972 9.42 65.3839 9.18 65.5572 9.02C65.7305 8.84667 65.9639 8.76 66.2572 8.76C66.5372 8.76 66.7505 8.81333 66.8972 8.92C67.0572 9.01333 67.2039 9.18667 67.3372 9.44L72.5772 19.22H71.9572L77.1772 9.44C77.3105 9.18667 77.4505 9.01333 77.5972 8.92C77.7439 8.81333 77.9572 8.76 78.2372 8.76C78.5305 8.76 78.7572 8.84667 78.9172 9.02C79.0772 9.18 79.1572 9.42 79.1572 9.74V22.16C79.1572 22.4667 79.0772 22.7067 78.9172 22.88C78.7705 23.0533 78.5439 23.14 78.2372 23.14C77.9305 23.14 77.6972 23.0533 77.5372 22.88C77.3772 22.7067 77.2972 22.4667 77.2972 22.16V11.84H77.7372L73.0972 20.42C72.9905 20.62 72.8772 20.7667 72.7572 20.86C72.6372 20.9533 72.4705 21 72.2572 21C72.0439 21 71.8705 20.9533 71.7372 20.86C71.6039 20.7533 71.4839 20.6067 71.3772 20.42L66.6972 11.82H67.1772V22.16C67.1772 22.4667 67.0972 22.7067 66.9372 22.88C66.7905 23.0533 66.5639 23.14 66.2572 23.14ZM85.3838 23.18C84.7038 23.18 84.0904 23.0467 83.5438 22.78C83.0104 22.5133 82.5904 22.1533 82.2838 21.7C81.9771 21.2467 81.8238 20.7333 81.8238 20.16C81.8238 19.44 82.0038 18.8733 82.3638 18.46C82.7371 18.0333 83.3438 17.7333 84.1838 17.56C85.0371 17.3733 86.1838 17.28 87.6238 17.28H88.5638V18.52H87.6438C86.6838 18.52 85.9238 18.5667 85.3638 18.66C84.8038 18.7533 84.4038 18.9133 84.1638 19.14C83.9371 19.3533 83.8238 19.6533 83.8238 20.04C83.8238 20.5467 83.9971 20.96 84.3438 21.28C84.6904 21.5867 85.1704 21.74 85.7838 21.74C86.2771 21.74 86.7104 21.6267 87.0838 21.4C87.4571 21.16 87.7504 20.84 87.9638 20.44C88.1904 20.04 88.3038 19.58 88.3038 19.06V16.76C88.3038 16 88.1438 15.4533 87.8238 15.12C87.5038 14.7867 86.9771 14.62 86.2438 14.62C85.8171 14.62 85.3704 14.6733 84.9038 14.78C84.4504 14.8867 83.9771 15.0667 83.4837 15.32C83.2571 15.4267 83.0638 15.46 82.9038 15.42C82.7438 15.38 82.6171 15.2933 82.5238 15.16C82.4304 15.0133 82.3771 14.86 82.3638 14.7C82.3638 14.5267 82.4038 14.36 82.4838 14.2C82.5771 14.04 82.7304 13.92 82.9438 13.84C83.5304 13.56 84.1104 13.36 84.6838 13.24C85.2571 13.12 85.7971 13.06 86.3038 13.06C87.1971 13.06 87.9304 13.2 88.5038 13.48C89.0904 13.76 89.5238 14.1867 89.8038 14.76C90.0838 15.3333 90.2238 16.0733 90.2238 16.98V22.12C90.2238 22.44 90.1438 22.6933 89.9838 22.88C89.8238 23.0533 89.5904 23.14 89.2838 23.14C88.9904 23.14 88.7571 23.0533 88.5838 22.88C88.4104 22.6933 88.3238 22.44 88.3238 22.12V20.82H88.5038C88.3971 21.3133 88.1971 21.74 87.9038 22.1C87.6238 22.4467 87.2704 22.7133 86.8438 22.9C86.4171 23.0867 85.9304 23.18 85.3838 23.18ZM97.3059 23.18C96.3059 23.18 95.4393 22.9733 94.7059 22.56C93.9859 22.1333 93.4259 21.54 93.0259 20.78C92.6259 20.0067 92.4259 19.1 92.4259 18.06C92.4259 17.2867 92.5393 16.5933 92.7659 15.98C92.9926 15.3533 93.3126 14.8267 93.7259 14.4C94.1526 13.9733 94.6659 13.6467 95.2659 13.42C95.8793 13.18 96.5593 13.06 97.3059 13.06C97.7726 13.06 98.2593 13.1333 98.7659 13.28C99.2859 13.4133 99.7659 13.64 100.206 13.96C100.379 14.0667 100.486 14.2 100.526 14.36C100.579 14.5067 100.586 14.66 100.546 14.82C100.519 14.98 100.446 15.12 100.326 15.24C100.219 15.3467 100.086 15.4133 99.9259 15.44C99.7659 15.4533 99.5926 15.4067 99.4059 15.3C99.0859 15.0733 98.7593 14.9133 98.4259 14.82C98.0926 14.7133 97.7726 14.66 97.4659 14.66C96.9859 14.66 96.5593 14.74 96.1859 14.9C95.8259 15.0467 95.5193 15.2667 95.2659 15.56C95.0126 15.84 94.8193 16.1933 94.6859 16.62C94.5659 17.0467 94.5059 17.5333 94.5059 18.08C94.5059 19.1733 94.7593 20.0333 95.2659 20.66C95.7859 21.2733 96.5193 21.58 97.4659 21.58C97.7726 21.58 98.0926 21.5333 98.4259 21.44C98.7593 21.3467 99.0859 21.1867 99.4059 20.96C99.5926 20.8533 99.7659 20.8133 99.9259 20.84C100.086 20.8667 100.213 20.94 100.306 21.06C100.413 21.1667 100.479 21.3 100.506 21.46C100.546 21.6067 100.539 21.76 100.486 21.92C100.433 22.08 100.319 22.2133 100.146 22.32C99.7193 22.6267 99.2526 22.8467 98.7459 22.98C98.2526 23.1133 97.7726 23.18 97.3059 23.18ZM103.362 23.14C103.029 23.14 102.775 23.0533 102.602 22.88C102.429 22.6933 102.342 22.44 102.342 22.12V14.12C102.342 13.7867 102.429 13.5333 102.602 13.36C102.775 13.1867 103.015 13.1 103.322 13.1C103.642 13.1 103.882 13.1867 104.042 13.36C104.215 13.5333 104.302 13.7867 104.302 14.12V15.58H104.102C104.315 14.78 104.709 14.1733 105.282 13.76C105.855 13.3467 106.589 13.1067 107.482 13.04C107.722 13.0267 107.909 13.0867 108.042 13.22C108.189 13.3533 108.269 13.56 108.282 13.84C108.309 14.12 108.249 14.3467 108.102 14.52C107.955 14.68 107.729 14.7733 107.422 14.8L107.042 14.84C106.175 14.92 105.515 15.1933 105.062 15.66C104.609 16.1267 104.382 16.7667 104.382 17.58V22.12C104.382 22.44 104.295 22.6933 104.122 22.88C103.962 23.0533 103.709 23.14 103.362 23.14ZM113.906 23.18C112.919 23.18 112.066 22.9733 111.346 22.56C110.639 22.1467 110.086 21.56 109.686 20.8C109.286 20.04 109.086 19.1467 109.086 18.12C109.086 17.3333 109.199 16.6333 109.426 16.02C109.653 15.4067 109.973 14.88 110.386 14.44C110.813 13.9867 111.319 13.6467 111.906 13.42C112.506 13.18 113.173 13.06 113.906 13.06C114.879 13.06 115.719 13.2667 116.426 13.68C117.146 14.0933 117.706 14.68 118.106 15.44C118.506 16.1867 118.706 17.08 118.706 18.12C118.706 18.8933 118.593 19.5933 118.366 20.22C118.139 20.8467 117.813 21.38 117.386 21.82C116.973 22.26 116.466 22.6 115.866 22.84C115.279 23.0667 114.626 23.18 113.906 23.18ZM113.906 21.62C114.453 21.62 114.933 21.4867 115.346 21.22C115.759 20.9533 116.079 20.56 116.306 20.04C116.546 19.52 116.666 18.88 116.666 18.12C116.666 16.9733 116.413 16.1067 115.906 15.52C115.399 14.9333 114.733 14.64 113.906 14.64C113.346 14.64 112.859 14.7733 112.446 15.04C112.033 15.2933 111.706 15.68 111.466 16.2C111.239 16.72 111.126 17.36 111.126 18.12C111.126 19.2533 111.379 20.12 111.886 20.72C112.393 21.32 113.066 21.62 113.906 21.62ZM127.515 23.18C126.088 23.18 124.868 22.8867 123.855 22.3C122.841 21.7133 122.061 20.88 121.515 19.8C120.981 18.7067 120.715 17.42 120.715 15.94C120.715 14.8333 120.868 13.84 121.175 12.96C121.481 12.0667 121.921 11.3067 122.495 10.68C123.081 10.04 123.795 9.55333 124.635 9.22C125.488 8.88667 126.448 8.72 127.515 8.72C128.301 8.72 129.055 8.82667 129.775 9.04C130.508 9.25333 131.141 9.56 131.675 9.96C131.901 10.1067 132.048 10.2867 132.115 10.5C132.195 10.7 132.208 10.8933 132.155 11.08C132.115 11.2667 132.028 11.4267 131.895 11.56C131.761 11.68 131.588 11.7467 131.375 11.76C131.175 11.7733 130.955 11.7 130.715 11.54C130.275 11.2067 129.788 10.96 129.255 10.8C128.721 10.64 128.161 10.56 127.575 10.56C126.561 10.56 125.708 10.7733 125.015 11.2C124.321 11.6133 123.795 12.22 123.435 13.02C123.075 13.82 122.895 14.7933 122.895 15.94C122.895 17.0867 123.075 18.0667 123.435 18.88C123.795 19.68 124.321 20.2933 125.015 20.72C125.708 21.1333 126.561 21.34 127.575 21.34C128.161 21.34 128.721 21.26 129.255 21.1C129.801 20.9267 130.315 20.6733 130.795 20.34C131.035 20.1933 131.248 20.1267 131.435 20.14C131.635 20.1533 131.801 20.22 131.935 20.34C132.068 20.46 132.155 20.6133 132.195 20.8C132.248 20.9733 132.241 21.16 132.175 21.36C132.121 21.5467 131.995 21.7067 131.795 21.84C131.248 22.28 130.601 22.6133 129.855 22.84C129.108 23.0667 128.328 23.18 127.515 23.18ZM137.278 23.18C136.598 23.18 135.985 23.0467 135.438 22.78C134.905 22.5133 134.485 22.1533 134.178 21.7C133.872 21.2467 133.718 20.7333 133.718 20.16C133.718 19.44 133.898 18.8733 134.258 18.46C134.632 18.0333 135.238 17.7333 136.078 17.56C136.932 17.3733 138.078 17.28 139.518 17.28H140.458V18.52H139.538C138.578 18.52 137.818 18.5667 137.258 18.66C136.698 18.7533 136.298 18.9133 136.058 19.14C135.832 19.3533 135.718 19.6533 135.718 20.04C135.718 20.5467 135.892 20.96 136.238 21.28C136.585 21.5867 137.065 21.74 137.678 21.74C138.172 21.74 138.605 21.6267 138.978 21.4C139.352 21.16 139.645 20.84 139.858 20.44C140.085 20.04 140.198 19.58 140.198 19.06V16.76C140.198 16 140.038 15.4533 139.718 15.12C139.398 14.7867 138.872 14.62 138.138 14.62C137.712 14.62 137.265 14.6733 136.798 14.78C136.345 14.8867 135.872 15.0667 135.378 15.32C135.152 15.4267 134.958 15.46 134.798 15.42C134.638 15.38 134.512 15.2933 134.418 15.16C134.325 15.0133 134.272 14.86 134.258 14.7C134.258 14.5267 134.298 14.36 134.378 14.2C134.472 14.04 134.625 13.92 134.838 13.84C135.425 13.56 136.005 13.36 136.578 13.24C137.152 13.12 137.692 13.06 138.198 13.06C139.092 13.06 139.825 13.2 140.398 13.48C140.985 13.76 141.418 14.1867 141.698 14.76C141.978 15.3333 142.118 16.0733 142.118 16.98V22.12C142.118 22.44 142.038 22.6933 141.878 22.88C141.718 23.0533 141.485 23.14 141.178 23.14C140.885 23.14 140.652 23.0533 140.478 22.88C140.305 22.6933 140.218 22.44 140.218 22.12V20.82H140.398C140.292 21.3133 140.092 21.74 139.798 22.1C139.518 22.4467 139.165 22.7133 138.738 22.9C138.312 23.0867 137.825 23.18 137.278 23.18ZM148.04 23.18C147 23.18 146.214 22.88 145.68 22.28C145.16 21.6667 144.9 20.7867 144.9 19.64V9.78C144.9 9.44667 144.987 9.19333 145.16 9.02C145.334 8.84667 145.58 8.76 145.9 8.76C146.22 8.76 146.467 8.84667 146.64 9.02C146.827 9.19333 146.92 9.44667 146.92 9.78V19.52C146.92 20.1867 147.054 20.6867 147.32 21.02C147.6 21.34 148 21.5 148.52 21.5C148.64 21.5 148.747 21.5 148.84 21.5C148.934 21.4867 149.027 21.4733 149.12 21.46C149.28 21.4467 149.394 21.4933 149.46 21.6C149.527 21.6933 149.56 21.8933 149.56 22.2C149.56 22.48 149.5 22.7 149.38 22.86C149.26 23.0067 149.067 23.1 148.8 23.14C148.68 23.1533 148.554 23.16 148.42 23.16C148.287 23.1733 148.16 23.18 148.04 23.18ZM155.216 23.18C154.216 23.18 153.349 22.9733 152.616 22.56C151.896 22.1333 151.336 21.54 150.936 20.78C150.536 20.0067 150.336 19.1 150.336 18.06C150.336 17.2867 150.449 16.5933 150.676 15.98C150.903 15.3533 151.223 14.8267 151.636 14.4C152.063 13.9733 152.576 13.6467 153.176 13.42C153.789 13.18 154.469 13.06 155.216 13.06C155.683 13.06 156.169 13.1333 156.676 13.28C157.196 13.4133 157.676 13.64 158.116 13.96C158.289 14.0667 158.396 14.2 158.436 14.36C158.489 14.5067 158.496 14.66 158.456 14.82C158.429 14.98 158.356 15.12 158.236 15.24C158.129 15.3467 157.996 15.4133 157.836 15.44C157.676 15.4533 157.503 15.4067 157.316 15.3C156.996 15.0733 156.669 14.9133 156.336 14.82C156.003 14.7133 155.683 14.66 155.376 14.66C154.896 14.66 154.469 14.74 154.096 14.9C153.736 15.0467 153.429 15.2667 153.176 15.56C152.923 15.84 152.729 16.1933 152.596 16.62C152.476 17.0467 152.416 17.5333 152.416 18.08C152.416 19.1733 152.669 20.0333 153.176 20.66C153.696 21.2733 154.429 21.58 155.376 21.58C155.683 21.58 156.003 21.5333 156.336 21.44C156.669 21.3467 156.996 21.1867 157.316 20.96C157.503 20.8533 157.676 20.8133 157.836 20.84C157.996 20.8667 158.123 20.94 158.216 21.06C158.323 21.1667 158.389 21.3 158.416 21.46C158.456 21.6067 158.449 21.76 158.396 21.92C158.343 22.08 158.229 22.2133 158.056 22.32C157.629 22.6267 157.163 22.8467 156.656 22.98C156.163 23.1133 155.683 23.18 155.216 23.18Z" fill="#F2F2F2"/>
<path d="M28.9124 6.73668H23.531L24.7785 2.93986C24.8405 2.7507 24.7976 2.54269 24.666 2.39349C24.5345 2.24413 24.3333 2.17561 24.138 2.21374L18.8069 3.24921V2.48617C18.8069 2.2575 18.6682 2.05178 18.4566 1.96593L13.7085 0.0410082C13.5472 -0.0240219 13.3648 -0.0114109 13.2139 0.076714C13.0636 0.164383 12.9627 0.317082 12.9402 0.489838L12.1376 6.73683H3.08772C2.77746 6.73683 2.52631 6.98829 2.52631 7.29825V9.26313C2.52631 10.6563 3.65841 11.7894 5.04987 11.7894H26.9501C28.3416 11.7894 29.4737 10.6561 29.4737 9.26313V7.2981C29.4737 6.98799 29.2227 6.73668 28.9124 6.73668ZM18.8071 4.39256L23.4134 3.49824L22.3494 6.73668H18.8071V4.39256ZM13.9611 1.35513L17.6843 2.8645V3.93005V6.73683H13.2698L13.9611 1.35513ZM28.351 9.26298C28.351 10.0368 27.7228 10.6664 26.9503 10.6664H5.05002C4.27756 10.6664 3.64929 10.0368 3.64929 9.26298V7.85952H12.6318H18.2445C18.2445 7.85952 18.2454 7.85982 18.2458 7.85982H22.7557C22.7563 7.85982 22.7568 7.85952 22.7574 7.85952H28.351V9.26298Z" fill="#F2F2F2"/>
<path d="M23.8832 12.7994C23.8302 12.5382 23.5998 12.3507 23.3333 12.3507H8.66677C8.40026 12.3507 8.17008 12.5382 8.1169 12.7994L4.78349 29.0802C4.74946 29.2455 4.7917 29.417 4.89866 29.5478C5.00502 29.6784 5.16456 29.7543 5.33336 29.7543H9.26313V32H10.386V29.7543H21.614V32H22.7368V29.7543H26.6666C26.8354 29.7543 26.9951 29.6784 27.1013 29.5478C27.2083 29.417 27.2503 29.2455 27.2165 29.0802L23.8832 12.7994ZM22.7368 28.6313H21.614H10.386H9.26313H6.0215L9.12517 13.4734H22.8752L25.9789 28.6313H22.7368Z" fill="#F2F2F2"/>
<path d="M16 15.7191C13.2137 15.7191 10.9474 17.9858 10.9474 20.7717C10.9474 23.5575 13.2139 25.8243 16 25.8243C18.7861 25.8243 21.0526 23.5575 21.0526 20.7717C21.0526 17.9858 18.7863 15.7191 16 15.7191ZM16 24.7016C13.8333 24.7016 12.0702 22.9388 12.0702 20.7718C12.0702 18.6048 13.8333 16.842 16 16.842C16.4321 16.842 16.8467 16.9148 17.236 17.0443L15.2467 21.023L16.2511 21.5251L18.24 17.5473C19.2599 18.258 19.9299 19.4375 19.9299 20.7718C19.9299 22.9388 18.1668 24.7016 16 24.7016Z" fill="#F2F2F2"/>
</svg>
