<svg width="34" height="40" viewBox="0 0 34 40" fill="none" xmlns="http://www.w3.org/2000/svg">
<path d="M32.9827 8.42085H26.2559L27.8152 3.67483C27.8927 3.43837 27.8391 3.17837 27.6747 2.99186C27.5102 2.80517 27.2587 2.71951 27.0147 2.76718L20.3508 4.06152V3.10772C20.3508 2.82188 20.1774 2.56472 19.9128 2.45741L13.9777 0.0512603C13.7762 -0.0300274 13.5481 -0.0142637 13.3595 0.0958926C13.1716 0.205479 13.0455 0.396353 13.0174 0.612297L12.0141 8.42104H0.701771C0.313945 8.42104 0 8.73537 0 9.12281V11.5789C0 13.3203 1.41513 14.7368 3.15446 14.7368H30.5298C32.2691 14.7368 33.6842 13.3201 33.6842 11.5789V9.12262C33.6842 8.73499 33.3705 8.42085 32.9827 8.42085ZM20.351 5.4907L26.1089 4.3728L24.7789 8.42085H20.351V5.4907ZM14.2935 1.69392L18.9474 3.58063V4.91257V8.42104H13.4294L14.2935 1.69392ZM32.2809 11.5787C32.2809 12.546 31.4956 13.3331 30.53 13.3331H3.15465C2.18907 13.3331 1.40373 12.546 1.40373 11.5787V9.8244H12.6319H19.6477C19.6477 9.8244 19.6488 9.82478 19.6494 9.82478H25.2867C25.2875 9.82478 25.2881 9.8244 25.2888 9.8244H32.2809V11.5787Z" fill="#37B947"/>
<path d="M26.6962 15.9992C26.6299 15.6727 26.342 15.4384 26.0088 15.4384H7.67561C7.34248 15.4384 7.05474 15.6727 6.98827 15.9992L2.82152 36.3502C2.77897 36.5568 2.83177 36.7712 2.96548 36.9348C3.09843 37.0979 3.29785 37.1929 3.50885 37.1929H8.42106V40H9.8246V37.1929H23.8596V40H25.2632V37.1929H30.1754C30.3864 37.1929 30.586 37.0979 30.7188 36.9348C30.8525 36.7712 30.9051 36.5568 30.8627 36.3502L26.6962 15.9992ZM25.2632 35.7891H23.8596H9.8246H8.42106H4.36902L8.24861 16.8417H25.4362L29.3158 35.7891H25.2632Z" fill="#37B947"/>
<path d="M16.8421 19.6488C13.3593 19.6488 10.5264 22.4823 10.5264 25.9646C10.5264 29.4468 13.3595 32.2803 16.8421 32.2803C20.3248 32.2803 23.1579 29.4468 23.1579 25.9646C23.1579 22.4823 20.325 19.6488 16.8421 19.6488ZM16.8421 30.8769C14.1338 30.8769 11.9299 28.6734 11.9299 25.9647C11.9299 23.256 14.1338 21.0525 16.8421 21.0525C17.3823 21.0525 17.9006 21.1435 18.3872 21.3053L15.9005 26.2787L17.1561 26.9064L19.6422 21.9342C20.917 22.8224 21.7545 24.2968 21.7545 25.9647C21.7545 28.6734 19.5506 30.8769 16.8421 30.8769Z" fill="#37B947"/>
</svg>
